<?xml version="1.0" encoding="utf-8"?>
<!-- Generator: Adobe Illustrator 21.1.0, SVG Export Plug-In . SVG Version: 6.00 Build 0)  -->
<svg version="1.1" id="レイヤー_1" xmlns:figma="http://www.figma.com/figma/ns"
	 xmlns="http://www.w3.org/2000/svg" xmlns:xlink="http://www.w3.org/1999/xlink" x="0px" y="0px" viewBox="0 0 109 24"
	 style="enable-background:new 0 0 109 24;" xml:space="preserve">
<style type="text/css">
	.st0{fill:#CAB975;}
	.st1{font-family:'RyuminPro-Medium';}
	.st2{font-size:3.3976px;}
</style>
<title>Logo</title>
<g>
	<text transform="matrix(1 0 0 1 39.625 23.7305)" class="st0 st1 st2">Cipher Web LLC</text>
</g>
<g>
	<path class="st0" d="M18.1,7.6c0,0,1.7-2,1.6-3.1c-0.1-1-0.2-1.9-0.8-2.3s-2.3-1.1-4.4-0.4c-2.2,0.8-4.3,2.8-5.2,4.3
		s-1.8,3.4-1.9,4.6c-0.1,1.1-0.6,4,0,5.4c0.6,1.4,1.8,2.3,2.9,2.7c1.1,0.4,2.6,0.7,4-0.7c1.4-1.4,3.6-3.7,3.6-3.7l-0.9-0.5l-3.5,3.2
		c0,0-1.5,0.5-2.4-0.2c-0.9-0.7-1.1-5.5-0.2-7.5s3.6-6,4.6-6.3c1-0.3,2.2-0.7,2.7-0.2c0.5,0.5,0,1.4-0.4,2s-1.2,1.4-1.2,1.4
		L18.1,7.6z"/>
	<path class="st0" d="M23.1,2.8l-0.5,3.7c0,0,0.1,0.7,0.2,0.7c0.1,0,1-0.2,1-0.2l1.9-2.5l-0.3-0.9L24,2.8H23.1z"/>
	<path class="st0" d="M21.7,8.5c0,0-1.2,0.1-1.9,2.6c-0.7,2.5-1,4.6-1,5.4c0,0.8,1.5,1.1,1.5,1.1s1-4,1.5-5s1.9-2.7,1.9-2.7
		S22.1,8.3,21.7,8.5z"/>
	<path class="st0" d="M27.4,5.3c0,0-1.7,4-3.2,8c-1.5,3.8-0.5,1.2-2.2,5.2c-1.7,4,1,6.2,1,6.2s2-8.9,3.1-10.7
		c1.2-1.8,4.4-6.1,4.9-5.6c0.5,0.5-0.2,2.1-1.2,4.1s-3.8,4.6-3.8,4.6s3.2,0.2,3.3,0c0.2-0.2,3-2.8,3.7-4.4c0.7-1.6,0.6-4.1,0-4.6
		c-0.6-0.5-2.2-0.8-3.3,0.1c-1.1,0.9-2.1,2-2.1,2s0.3-1.6,1-2.4c0.7-0.9,1.4-1.3,1.4-1.3S29.7,5.5,27.4,5.3z"/>
	<path class="st0" d="M40.9-0.4c0,0-2.2,2.4-3.7,5.7s-3.7,9.2-3.5,11.1s0.8,2.2,0.8,2.2s1.4-3.2,2.2-4.6c0.8-1.3,3.8-4.4,4.2-4.1
		s-1.3,2.6-1.8,4.1s-0.7,2.3-0.3,2.9c0.4,0.7,2.2,0.4,2.2,0.4l1.4-0.8L42,16.1c0,0-0.7,0.2-1,0c-0.3-0.2,0.5-3.5,1.8-4.8
		s2.3-2.4,2.3-2.4s-1.8-1.4-2.4-1.3C42.1,7.8,41,8.1,41,8.1s-1,0.7-2,1.7c-0.9,1.1-2.5,2.5-2.5,2.5s1.3-3.9,2.9-6.3
		c1.6-2.4,4.2-5,4.2-5s-0.3-0.5-1.1-0.9C41.9-0.3,40.9-0.4,40.9-0.4z"/>
	<path class="st0" d="M46.6,14v0.7c0,0,3.3-1.3,4.2-2.5s2-3.2,1.4-3.9c-0.5-0.7-1.2-1.7-3.1-1s-2.1,1.7-3,2.7
		c-0.8,1.1-2.1,2.7-1.9,4.3s0.3,2.1,1.2,2.8c0.9,0.6,1.7,1.3,3.1,0.5c1.4-0.7,3.1-2.4,3.2-2.9c0.1-0.5,0.1-0.5,0.1-0.5l-0.9,0.4
		c0,0-0.4,1.1-1.5,1.5c-1,0.5-2,0.8-2.5,0.3c-0.5-0.4-0.4-2.1-0.1-3.1s0.4-1.9,1.5-2.8c1.1-1,1.9-1.5,2.2-1.3s0.1,1.3-0.8,2.1
		c-0.9,0.8-1.9,1.8-2.2,1.9C47.1,13.5,46.6,14,46.6,14z"/>
	<path class="st0" d="M55.9,6.9c0,0-1.5,3.2-2.1,5s-1.2,4.2-0.9,4.8c0.3,0.6,1.1,1.2,1.5,1.3s0.4-2.9,1-4s3.3-3.4,3.3-3.4
		s1.1,1.9,1.4,1.9c0.3,0,0.5-0.2,0.5-0.2l0.9-0.7l0-4l-1.7-0.2L57,10.2l1.3-2.5c0,0-0.3-0.2-1-0.6C56.5,6.7,55.9,6.9,55.9,6.9z"/>
	<path class="st0" d="M69.6,1.8c0,0-0.5,7-0.6,8.8s0,7.6,0,7.6s0.8,0.6,1.7,0.9c0.9,0.3,1.8,0,1.9-0.3c0.1-0.3,4.2-10.6,4.2-10.6
		v10.5c0,0,0.6,0.5,1.6,0.5s1.6-0.3,1.6-0.3s3.5-8.1,4.2-9.5c0.7-1.4,4-6.1,4-6.1s-0.4-0.5-1-0.9s-1.4-0.1-1.4-0.1s-2.3,4.9-3.2,6.7
		c-0.9,1.8-3.4,7.3-3.4,7.3s-0.3-4.8,0.2-7.7s1.3-5.4,1.3-5.4s-1-0.6-1.6-1c-0.6-0.4-1.8-0.4-1.8-0.4s-1.9,5.4-2.6,7.5
		c-0.7,2.1-3.1,7.5-3.1,7.5s-0.5-5.5,0-7.9C72.1,6.5,73,3,73,3s-1.1-1-1.7-1.2C70.6,1.6,69.6,1.8,69.6,1.8z"/>
	<path class="st0" d="M87.4,13.9v0.7c0,0,3.3-1.3,4.2-2.5s2-3.2,1.4-3.9s-1.2-1.7-3.1-1c-1.9,0.7-2.1,1.7-3,2.7s-2.1,2.7-1.9,4.3
		s0.3,2.1,1.2,2.8s1.7,1.3,3.1,0.5c1.4-0.7,3.1-2.4,3.2-2.9c0.1-0.5,0.1-0.5,0.1-0.5l-0.9,0.4c0,0-0.4,1.1-1.5,1.5
		c-1,0.5-2,0.8-2.5,0.3c-0.5-0.4-0.4-2.1-0.1-3.1c0.2-1,0.4-1.9,1.5-2.8c1.1-1,1.9-1.5,2.2-1.3c0.3,0.3,0.1,1.3-0.8,2.1
		s-1.9,1.8-2.2,1.9C87.9,13.4,87.4,13.9,87.4,13.9z"/>
	<path class="st0" d="M100.4-0.1c0,0-3,2.6-4.8,6.9s-1.8,9.1-1.8,9.1l1.1,1c0,0,1.3-3.6,2.5-5.2c1.2-1.6,3.1-3.4,3.3-3.3
		c0.2,0.1,0.4,2.3-1.4,4.8s-4,4.2-4,4.2s2.2,0.7,2.6,0.6c0.4-0.1,3.2-2.5,4.1-5s0.9-4.7-0.3-5.5c-1.3-0.8-3.1,1.3-3.8,1.9
		C97.2,9.9,96,12,96,12s2-5.9,3.2-7.5s3.2-3.6,3.2-3.6s-0.8-0.5-1.1-0.7C100.9,0,100.4-0.1,100.4-0.1z"/>
</g>
</svg>
